<svg aria-hidden="true" style="width:0;height:0;position:absolute;overflow:hidden" xmlns="http://www.w3.org/2000/svg"><defs><symbol id="icon-logo-icecream" viewBox="0 0 127 32"><path fill="#fff" style="fill:var(--color1,#fff)" d="M31.36 16.32C31.36 24.98 24.483 32 16 32S.64 24.98.64 16.32 7.517.64 16 .64s15.36 7.02 15.36 15.68z"/><path fill="#d41443" style="fill:var(--color2,#d41443)" d="M11.849.561C4.444 2.804 0 8.635 0 16.003c0 6.022 3.091 11.277 8.179 13.904 2.64 1.345 3.027.384.579-1.474-1.738-1.409-2.061-2.05-2.061-4.421 0-1.666-.386-3.011-.966-3.524-1.158-.961-1.288-3.46-.128-4.357.45-.384.901-1.666.965-2.819.323-4.228 4.895-8.201 9.467-8.201s9.144 3.972 9.466 8.201c.064 1.153.515 2.435.966 2.819 1.158.897 1.03 3.396-.129 4.357-.579.513-.966 1.858-.966 3.524 0 2.371-.321 3.012-2.06 4.421-2.705 2.115-1.932 2.883 1.094 1.025 4.251-2.627 7.406-8.33 7.406-13.391 0-10.124-10.561-18.325-19.964-15.506z"/><path fill="#d41443" style="fill:var(--color2,#d41443)" d="M12.687 7.994c-1.16.513-2.125 1.154-2.125 1.538 0 .705 3.478 1.987 5.474 1.987s5.474-1.281 5.474-1.987c0-.768-3.993-2.499-5.603-2.499-.644.064-2.125.448-3.22.961zm33.164 3.332c-.966.256-1.158 1.089-1.158 5.702v5.382h4.572l-.193-5.574c-.193-5.83-.451-6.28-3.22-5.51zm7.535.32c-2.125 1.154-2.898 2.563-2.898 5.318 0 3.78 2.061 5.574 5.86 5.318 2.576-.192 2.833-.385 3.027-1.987s.064-1.73-1.932-1.602c-2.061.192-2.125.064-2.125-2.051s.129-2.243 1.997-2.05c1.545.128 2.125-.128 2.382-1.089.129-.641 0-1.538-.387-1.923-.901-.897-4.25-.897-5.924.064zm7.664.064c-.194.513-.258 3.012-.129 5.638l.193 4.742H65.3c3.864 0 4.186-.128 4.379-1.474.193-1.217-.064-1.409-2.06-1.409-1.288 0-2.319-.32-2.319-.641 0-.385.902-.641 1.932-.641 1.481 0 1.932-.256 1.932-1.281s-.451-1.281-1.932-1.281c-1.03 0-1.932-.32-1.932-.641 0-.385.837-.641 1.868-.641 1.804 0 3.027-1.409 2.254-2.627-.58-.961-7.985-.705-8.371.256zm12.943-.192c-2.125.833-2.962 2.307-3.027 4.998-.065 4.613 1.803 6.215 6.633 5.766 1.868-.128 2.189-.448 2.189-1.794 0-1.409-.257-1.602-2.061-1.409-1.546.128-2.125-.064-2.447-1.089-.58-1.987.644-3.588 2.705-3.588 1.224 0 1.868-.384 1.996-1.217.451-2.051-2.833-3.011-5.989-1.666zm7.921-.256c-.323.256-.515 2.883-.515 5.83v5.382l2.06-.192c1.61-.128 2.19-.577 2.512-1.795l.386-1.602.515 1.73c.387 1.474.837 1.795 2.512 1.795 2.769 0 3.091-.449 1.932-2.691-.708-1.41-.837-2.115-.322-2.627.837-.833.902-3.652.129-4.87-.644-1.025-8.371-1.858-9.208-.961zm5.28 3.46c0 .705-.257 1.281-.644 1.281-.322 0-.644-.576-.644-1.281s.322-1.282.644-1.282c.387 0 .644.577.644 1.282zm6.247-3.396c-.258.192-.451 2.819-.451 5.766v5.318h4.186c4.057 0 4.186-.064 4.186-1.602 0-1.346-.322-1.602-1.932-1.602-1.03 0-1.932-.32-1.932-.641 0-.385.708-.641 1.61-.641 1.159 0 1.61-.321 1.61-1.282s-.451-1.281-1.61-1.281c-.902 0-1.61-.32-1.61-.641 0-.384.902-.641 1.932-.641 1.61 0 1.932-.256 1.932-1.602 0-1.538-.193-1.602-3.735-1.602-2.061 0-3.992.192-4.186.448zm13.009-.064c-1.16.32-4.122 8.842-3.542 10.252.515 1.281 3.413 1.153 4.186-.192.579-1.089.644-1.089 1.803 0 1.482 1.281 4.701 1.474 4.701.256 0-.384-.644-2.947-1.482-5.574-1.288-4.228-1.674-4.805-3.027-4.933-.902 0-2.061.064-2.64.192zm1.803 5.83c-.193.641-.322.256-.322-.769 0-1.089.129-1.538.322-1.153.129.448.129 1.345 0 1.922zm7.47-5.766c-.58.192-.837 1.986-.837 5.702v5.382h1.868c1.61 0 1.932-.321 2.189-1.795.257-1.666.257-1.666.772-.32.258.833.902 1.474 1.352 1.474.515 0 1.224-.641 1.546-1.474.515-1.346.58-1.346.58.384.065 1.602.257 1.795 2.061 1.602l1.996-.192.065-5.318c.129-4.933.064-5.318-1.288-5.638-2.061-.512-3.799.705-4.379 3.076l-.451 2.115-.708-2.243c-.902-3.012-2.254-3.78-4.765-2.755zm-106.707.641c-.193.256-.387 1.089-.387 1.922 0 1.474.064 1.474 7.406 1.474 7.341 0 7.405 0 7.405-1.474 0-2.179-.579-2.435-2.64-1.409-2.319 1.217-7.213 1.217-9.531 0-1.03-.513-1.997-.705-2.254-.513zm-1.868 5.702c-1.03 1.089.708 1.538 5.731 1.538h5.409v2.243c0 1.217.322 2.243.644 2.243.386 0 .644-.961.644-2.179 0-2.115.129-2.243 2.576-2.435 1.416-.128 2.576-.512 2.576-.832 0-.705-16.872-1.282-17.581-.577z"/><path fill="#d41443" style="fill:var(--color2,#d41443)" d="M8.629 23.308c0 3.524 1.224 4.229 7.406 4.229s7.405-.705 7.405-4.229c0-1.538-.322-2.179-.966-2.179-.579 0-.965.577-.965 1.538 0 3.588-4.895 3.908-5.603.384-.322-1.858-.515-1.922-3.799-1.922H8.629v2.179zm3.993 7.24c.387 2.051 6.955 1.859 6.955-.128 0-.705-.837-.961-3.606-.961-3.027 0-3.542.192-3.348 1.089z"/></symbol><symbol id="icon-burger" viewBox="0 0 46 32"><path stroke-width="2.286" d="M0 2.286h45.714M0 16h45.714M0 29.714h45.714"/></symbol><symbol id="icon-home" viewBox="0 0 35 32"><path fill="#d31342" style="fill:var(--color4,#d31342)" d="M32.64 15.4a1.539 1.539 0 0 0-.128-2.223l-.002-.002L17.737.426a1.849 1.849 0 0 0-1.184-.425c-.466 0-.892.171-1.218.454l.002-.002L.516 13.856a1.53 1.53 0 0 0-.072 2.222l.373.381c.613.635 1.611.709 2.224.168l1.107-.979v14.328a1.6 1.6 0 0 0 1.6 1.589h5.802a1.6 1.6 0 0 0 1.6-1.589V19.951h7.371v10.024c-.013.88.624 1.589 1.515 1.589h6.134a1.6 1.6 0 0 0 1.6-1.589V15.849l.685.592c.376.325 1.168.064 1.765-.587l.421-.453z"/></symbol><symbol id="icon-github" viewBox="0 0 32 32"><path d="M32 16c0 8.837-7.163 16-16 16S0 24.837 0 16 7.163 0 16 0s16 7.163 16 16z"/><path fill="#fff" style="fill:var(--color1,#fff)" d="M16 6.588c-5.17 0-9.412 4.242-9.412 9.412 0 4.411 3.096 8.418 7.206 9.412v-3.114a2.307 2.307 0 0 1-1.197-.03c-.556-.165-1.008-.535-1.343-1.1-.214-.361-.593-.752-.988-.723l-.097-1.1c.855-.072 1.594.522 2.033 1.26.195.327.42.52.708.605.278.082.577.042.926-.08.087-.698.407-.96.648-1.327-2.451-.366-3.428-1.667-3.816-2.693-.514-1.363-.238-3.066.67-4.142.018-.021.05-.076.038-.114-.417-1.259.09-2.3.11-2.41.48.142.558-.143 2.088.786l.264.159c.11.066.076.028.187.02a7.77 7.77 0 0 1 1.969-.279H16a7.986 7.986 0 0 1 2.058.299l-.056-.014.086.008c-.008 0 .023-.005.075-.036 1.91-1.157 1.842-.779 2.354-.945.019.11.52 1.168.108 2.41-.056.172 1.656 1.74.707 4.256-.388 1.027-1.365 2.328-3.816 2.693v.001c.314.479.692.734.69 1.722v3.887c4.11-.994 7.206-5 7.206-9.412 0-5.17-4.242-9.412-9.412-9.412z"/></symbol><symbol id="icon-telegram" viewBox="0 0 33 32"><path d="M32.235 16c0 8.837-7.163 16-16 16s-16-7.163-16-16 7.163-16 16-16 16 7.163 16 16z"/><path fill="#fff" style="fill:var(--color1,#fff)" d="m13.102 18.375-.317 4.17c.454 0 .651-.183.887-.401l2.13-1.9 4.415 3.017c.81.42 1.38.199 1.599-.695l2.897-12.673h.001c.257-1.118-.433-1.554-1.222-1.28L6.46 14.699c-1.162.42-1.145 1.026-.198 1.3l4.355 1.264 10.114-5.907c.476-.294.91-.131.553.163l-8.181 6.856z"/></symbol><symbol id="icon-facebook" viewBox="0 0 33 32"><path d="M16.47 32c8.837 0 16-7.163 16-16s-7.163-16-16-16c-8.836 0-16 7.163-16 16s7.164 16 16 16z"/><path fill="#fff" style="fill:var(--color1,#fff)" d="M20.916 15.981h-2.61V25.6h-3.955v-9.62h-1.88V12.6h1.88v-2.187c0-1.565.74-4.014 3.99-4.014l2.93.012v3.281h-2.126c-.348 0-.839.176-.839.922v1.99h2.956l-.346 3.376z"/></symbol><symbol id="icon-close" viewBox="0 0 32 32"><path fill="none" stroke-width="2" d="m2.52 2 26.96 28M2 29.48 30 2.52"/></symbol><symbol id="icon-arrow-right-mini" viewBox="0 0 26 32"><path stroke-width="6.4" stroke-linecap="round" stroke-linejoin="round" d="M3.542 3.2 20.368 16 3.542 28.8"/></symbol><symbol id="icon-contacts-arrow" viewBox="0 0 26 32"><path fill="none" stroke-linejoin="round" stroke-linecap="round" stroke-width="6.4" d="M5.173 3.2 19.342 16 5.173 28.8"/></symbol><symbol id="icon-arrow-right" viewBox="0 0 24 24"><path d="M10.586 6.586a2 2 0 0 0 0 2.828L12.172 11H4.928a2 2 0 0 0 0 4h7.244l-1.586 1.586a2 2 0 1 0 2.828 2.828L19.828 13l-6.414-6.414a2 2 0 0 0-2.828 0z"/></symbol><symbol id="icon-logo" viewBox="0 0 32 32"><path fill="#ec7b13" style="fill:var(--color1,#ec7b13)" d="M0 0h14.222v14.222H0V0z"/><path fill="#18e645" style="fill:var(--color2,#18e645)" d="M17.778 0H32v14.222H17.778V0z"/><path fill="#67aff2" style="fill:var(--color3,#67aff2)" d="M8.889 17.778h14.222V32H8.889V17.778z"/></symbol><symbol id="icon-facebook-1" viewBox="0 0 32 32"><path d="M32 16c0 8.837-7.163 16-16 16S0 24.837 0 16 7.163 0 16 0s16 7.163 16 16z"/><path fill="#fff" style="fill:var(--color2,#fff)" d="M19.391 9.199h1.86V5.961a24.022 24.022 0 0 0-2.708-.143c-2.681 0-4.518 1.686-4.518 4.785v2.851h-2.957v3.62h2.957v9.108h3.627v-9.107h2.838l.45-3.62h-3.289v-2.496c0-1.046.282-1.761 1.74-1.761z"/></symbol><symbol id="icon-instagram" viewBox="0 0 32 32"><path d="M32 16c0 8.837-7.163 16-16 16S0 24.837 0 16 7.163 0 16 0s16 7.163 16 16z"/><path fill="#fff" style="fill:var(--color2,#fff)" d="M26.13 11.805c-.047-1.082-.222-1.826-.473-2.47a4.97 4.97 0 0 0-1.178-1.806 5.012 5.012 0 0 0-1.803-1.174c-.649-.25-1.388-.425-2.471-.472-1.09-.052-1.436-.064-4.202-.064-2.765 0-3.111.012-4.198.06-1.082.047-1.826.222-2.47.472a4.977 4.977 0 0 0-1.808 1.178 5.014 5.014 0 0 0-1.173 1.802c-.252.649-.426 1.388-.474 2.47-.052 1.089-.064 1.436-.064 4.201 0 2.764.012 3.111.06 4.197.048 1.082.223 1.826.474 2.47.257.68.659 1.296 1.177 1.806a5.014 5.014 0 0 0 1.803 1.173c.649.252 1.389.427 2.471.473 1.087.048 1.433.06 4.198.06 2.766 0 3.112-.012 4.198-.06 1.082-.047 1.826-.222 2.471-.472a5.213 5.213 0 0 0 2.98-2.98c.251-.649.426-1.389.474-2.47.048-1.086.059-1.433.059-4.197s-.004-3.111-.051-4.197h-.001zm-1.833 8.315c-.045.995-.212 1.531-.35 1.89a3.385 3.385 0 0 1-1.935 1.933c-.356.14-.898.306-1.889.35-1.074.048-1.396.06-4.114.06-2.717 0-3.044-.012-4.114-.06-.995-.044-1.532-.211-1.89-.35a3.13 3.13 0 0 1-1.169-.76 3.177 3.177 0 0 1-.761-1.169c-.138-.358-.306-.899-.349-1.89-.048-1.074-.06-1.397-.06-4.113 0-2.718.012-3.044.06-4.113.044-.995.211-1.531.349-1.89.162-.443.423-.843.764-1.17a3.17 3.17 0 0 1 1.171-.76c.356-.139.898-.305 1.889-.35 1.074-.047 1.397-.059 4.114-.059 2.721 0 3.044.012 4.114.059.995.044 1.532.211 1.89.35.441.163.843.422 1.169.76.338.331.597.728.761 1.171.138.356.305.898.349 1.889.048 1.074.06 1.396.06 4.113 0 2.716-.012 3.034-.06 4.109h.001z"/><path fill="#fff" style="fill:var(--color2,#fff)" d="M16.004 10.771a5.237 5.237 0 0 0-5.232 5.231 5.235 5.235 0 0 0 10.466 0 5.233 5.233 0 0 0-5.233-5.232h-.001zm0 8.624a3.405 3.405 0 0 1-2.4-.994 3.4 3.4 0 0 1-.994-2.4 3.387 3.387 0 0 1 .995-2.4 3.381 3.381 0 0 1 2.4-.993 3.391 3.391 0 0 1 2.401 5.794c-.636.636-1.5.994-2.401.994l-.001-.001zm6.661-8.831a1.222 1.222 0 1 1-2.445 0 1.222 1.222 0 0 1 2.445 0z"/></symbol><symbol id="icon-twitter" viewBox="0 0 32 32"><path d="M32 16c0 8.837-7.163 16-16 16S0 24.837 0 16 7.163 0 16 0s16 7.163 16 16z"/><path fill="#fff" style="fill:var(--color2,#fff)" d="M26.182 9.686a8.699 8.699 0 0 1-2.406.659 4.149 4.149 0 0 0 1.837-2.307 8.34 8.34 0 0 1-2.647 1.01 4.178 4.178 0 0 0-4.581-1.029 4.171 4.171 0 0 0-2.639 3.883c0 .331.027.65.097.952-3.471-.169-6.542-1.833-8.605-4.366a4.2 4.2 0 0 0-.574 2.109 4.18 4.18 0 0 0 1.854 3.469 4.136 4.136 0 0 1-1.885-.513v.046a4.195 4.195 0 0 0 3.345 4.103c-.357.094-.725.14-1.095.136-.267 0-.537-.015-.79-.071.541 1.654 2.075 2.869 3.901 2.908a8.387 8.387 0 0 1-6.175 1.723 11.747 11.747 0 0 0 6.404 1.873c7.682 0 11.882-6.364 11.882-11.88 0-.183-.006-.362-.015-.54a8.316 8.316 0 0 0 2.092-2.165v-.001z"/></symbol><symbol id="icon-logo" viewBox="0 0 32 32"><path d="M16 0C7.163 0 0 7.163 0 16s7.163 16 16 16 16-7.163 16-16S24.837 0 16 0zm6 8a2 2 0 1 1 .001 3.999A2 2 0 0 1 22 8zM10 8a2 2 0 1 1 .001 3.999A2 2 0 0 1 10 8zm6.994 13.23A2.993 2.993 0 0 1 16 19a2.99 2.99 0 0 1-.994 2.23C12.302 23.683 6 21.172 6 18c1.938 1.25 3.452.306 4.879-1.121A3 3 0 0 1 16.001 19a3 3 0 0 1 5.122-2.121c1.427 1.427 2.941 2.371 4.879 1.121 0 3.173-6.302 5.684-9.006 3.23z"/></symbol></defs></svg>