<svg version="1.0" xmlns="http://www.w3.org/2000/svg" width="933.333" height="933.333" viewBox="0 0 700 700"><path d="M277.8 190.5c-6.1 1.6-10.6 4.5-15.6 9.9-3.6 3.9-11 16.6-9.7 16.6.2 0 .1 1-.4 2.3-2.1 5.4-2.8 16.8-1.7 25.2 2.8 19.8 14.6 37.9 29.8 45.4 33.2 16.4 62.7-21.5 48.8-62.9-8.9-26.5-30.5-41.8-51.2-36.5zM404.8 189.5c-.2.2-1.9.7-3.7 1-5.8 1-13.2 5.5-19.6 11.8-11 10.9-17.4 26-18.1 42.7-.2 5.2.1 12 .8 15 5.3 25 25.3 39 45.9 32.1 20.1-6.7 34.7-29.4 35.4-55.1.7-26-13.9-46.1-34.3-47.5-3.3-.2-6.2-.2-6.4 0zM497.5 273.4c-21.7 5.2-39.5 29.1-39.6 53.2 0 14.3 6.1 25.3 17.3 31 25 12.7 59.8-17.3 59.8-51.5 0-22.4-17.3-37.4-37.5-32.7zM188.7 285.2c-17.4 3.7-27 22.5-22.6 44 2 9.7 8.5 21.6 15.8 28.9 25.6 25.6 59.7 15.1 60.2-18.6.2-15.4-5.5-28.9-17.1-40.6-11.1-11.2-24.4-16.2-36.3-13.7zM342 340.7c-31.6 4.5-56.8 18.2-71.7 39-3.3 4.7-5.9 7.1-9.6 9-6 3-13.1 7.5-13.5 8.5-.2.5-.8.8-1.4.8-1.9 0-14.1 12.5-18 18.5-21.6 33.1 5.5 69.3 64.7 86.4 11.5 3.3 20.7 5 38.5 7.1 8 .9 47.1.6 53-.5 1.9-.3 7.8-1.3 13-2.1 38.6-6.2 72.1-24.1 85.7-45.5 9-14.3 8.6-31.6-1.1-46.2-6.5-9.8-20.3-21.2-33.6-27.7-2.9-1.4-5.4-3.6-7-6.3-3.6-5.8-16.5-18.6-23.4-23.1-11.7-7.7-24.7-13.1-39.1-16.1-7.3-1.6-30.2-2.7-36.5-1.8z"/></svg>