<svg version="1.0" xmlns="http://www.w3.org/2000/svg" width="933.333" height="933.333" viewBox="0 0 700 700"><path d="M277.6 185.7c-15 3.4-27.3 17.7-31.2 36.3-1.6 7.9-1.7 19.8-.2 26.5.6 2.2 1.2 5 1.4 6.3 1.8 9.5 9.8 22.9 18.8 31.3 12.8 12.2 30.6 15.8 44.8 9.2 27.3-12.8 34.5-56.3 14.3-86.7-12-18.1-30.4-26.9-47.9-22.9zM401.3 185.5c-19.3 4.4-35.7 22.8-41.4 46.5-1.7 7.3-1.7 25.2 0 31.5 4.2 15.2 14.5 28.2 25.7 32.5 9.3 3.6 21.1 3.3 30.4-.9 20-9 34.1-33.7 34.2-59.6 0-10.6-.1-11.1-2.6-19.4-6.5-21.8-26.5-35.1-46.3-30.6zM499.7 268.1c-9 1-19.7 6.8-28.2 15.3-23.8 23.9-24.6 62.2-1.6 76.8 14.9 9.4 35.1 5.5 50.7-9.9 12.5-12.4 18.7-26.3 18.7-42.3.1-11.2-.5-14.5-3.9-21.1-6.9-13.8-19.8-20.6-35.7-18.8zM188.4 280.6c-10.8 2.2-18.1 7.7-23.2 17.3-10.1 18.8-4.2 46.3 13.7 64 30.3 30.1 70.9 13.4 67.8-27.9-1.1-14.2-7.5-27.7-18.3-38.6-12-12.1-26.7-17.6-40-14.8zM334.7 337.1c-17.5 3.1-29.6 7.7-43.7 16.7-9 5.8-23.9 20.1-25.9 24.9-.7 1.8-2.9 3.7-5.9 5.3-31.3 16.2-47.4 40.4-42.6 63.8 4 19.7 19.4 36 45.9 48.7 16.9 8.1 31.8 12.7 52 16.1 2 .3 6.8.9 18.5 2.3 6.6.8 43.8.6 47.5-.2 1.1-.3 4.7-.8 8-1.1 21.7-2.5 50.9-11.5 66.5-20.7 21.1-12.4 34.5-27.6 37.9-43.3 1.7-7.6 1.6-18.5-.2-20.2-.4-.4-.7-1.7-.7-3 0-2.6-5.6-12.9-10.1-18.6-5.4-6.8-19.3-17.6-28.6-22.3-4.4-2.2-6.9-4.3-9.4-8-12.7-18.5-37.3-33.9-62.9-39.4-14.3-3.1-32.3-3.5-46.3-1z"/></svg>