<!-- Generated by IcoMoon.io -->
<svg version="1.1" xmlns="http://www.w3.org/2000/svg" width="32" height="32" viewBox="0 0 32 32">
<title>instagram</title>
<path fill="#d9d9d9" d="M32 16c0 8.837-7.163 16-16 16s-16-7.163-16-16c0-8.837 7.163-16 16-16s16 7.163 16 16z"></path>
<path fill="#fff" d="M26.13 11.805c-0.047-1.082-0.222-1.826-0.473-2.47-0.256-0.681-0.658-1.298-1.178-1.806-0.509-0.517-1.124-0.918-1.803-1.174-0.649-0.25-1.388-0.425-2.471-0.472-1.090-0.052-1.436-0.064-4.202-0.064-2.765 0-3.111 0.012-4.198 0.060-1.082 0.047-1.826 0.222-2.47 0.472-0.682 0.256-1.299 0.658-1.808 1.178-0.517 0.509-0.917 1.124-1.173 1.802-0.252 0.649-0.426 1.388-0.474 2.47-0.052 1.089-0.064 1.436-0.064 4.201 0 2.764 0.012 3.111 0.060 4.197 0.048 1.082 0.223 1.826 0.474 2.47 0.257 0.68 0.659 1.296 1.177 1.806 0.509 0.517 1.126 0.918 1.803 1.173 0.649 0.252 1.389 0.427 2.471 0.473 1.087 0.048 1.433 0.060 4.198 0.060 2.766 0 3.112-0.012 4.198-0.060 1.082-0.047 1.826-0.222 2.471-0.472 0.677-0.262 1.292-0.662 1.805-1.175s0.914-1.128 1.175-1.805c0.251-0.649 0.426-1.389 0.474-2.47 0.048-1.086 0.059-1.433 0.059-4.197s-0.004-3.111-0.051-4.197h-0.001zM24.297 20.12c-0.045 0.995-0.212 1.531-0.35 1.89-0.17 0.439-0.43 0.838-0.763 1.171s-0.732 0.592-1.172 0.762c-0.356 0.14-0.898 0.306-1.889 0.35-1.074 0.048-1.396 0.060-4.114 0.060-2.717 0-3.044-0.012-4.114-0.060-0.995-0.044-1.532-0.211-1.89-0.35-0.442-0.162-0.841-0.422-1.169-0.76-0.337-0.328-0.597-0.728-0.761-1.169-0.138-0.358-0.306-0.899-0.349-1.89-0.048-1.074-0.060-1.397-0.060-4.113 0-2.718 0.012-3.044 0.060-4.113 0.044-0.995 0.211-1.531 0.349-1.89 0.162-0.443 0.423-0.843 0.764-1.17 0.329-0.337 0.729-0.597 1.171-0.76 0.356-0.139 0.898-0.305 1.889-0.35 1.074-0.047 1.397-0.059 4.114-0.059 2.721 0 3.044 0.012 4.114 0.059 0.995 0.044 1.532 0.211 1.89 0.35 0.441 0.163 0.843 0.422 1.169 0.76 0.338 0.331 0.597 0.728 0.761 1.171 0.138 0.356 0.305 0.898 0.349 1.889 0.048 1.074 0.060 1.396 0.060 4.113 0 2.716-0.012 3.034-0.060 4.109h0.001z"></path>
<path fill="#fff" d="M16.004 10.771c-1.387 0.001-2.718 0.552-3.699 1.533s-1.532 2.311-1.533 3.698c0.027 1.37 0.59 2.674 1.569 3.633s2.294 1.496 3.664 1.496c1.37 0 2.686-0.537 3.664-1.496s1.542-2.263 1.569-3.633c-0-1.387-0.552-2.718-1.533-3.699s-2.312-1.532-3.7-1.533h-0.001zM16.004 19.395c-0.446 0-0.887-0.088-1.299-0.258s-0.786-0.421-1.101-0.736c-0.315-0.315-0.565-0.689-0.736-1.101s-0.258-0.853-0.258-1.299 0.088-0.887 0.259-1.299c0.171-0.412 0.421-0.786 0.736-1.101s0.689-0.565 1.101-0.735c0.412-0.17 0.853-0.258 1.299-0.258 0.9 0 1.764 0.358 2.401 0.994s0.994 1.5 0.994 2.4c0 0.9-0.358 1.764-0.994 2.4s-1.5 0.994-2.401 0.994l-0.001-0.001zM22.665 10.564c0 0.324-0.129 0.635-0.358 0.864s-0.54 0.358-0.864 0.358-0.635-0.129-0.864-0.358c-0.229-0.229-0.358-0.54-0.358-0.864s0.129-0.635 0.358-0.864c0.229-0.229 0.54-0.358 0.864-0.358s0.635 0.129 0.864 0.358c0.229 0.229 0.358 0.54 0.358 0.864z"></path>
</svg>
