<!-- Generated by IcoMoon.io -->
<svg version="1.1" xmlns="http://www.w3.org/2000/svg" width="32" height="32" viewBox="0 0 32 32">
<title>twitter</title>
<path fill="#d9d9d9" d="M32 16c0 8.837-7.163 16-16 16s-16-7.163-16-16c0-8.837 7.163-16 16-16s16 7.163 16 16z"></path>
<path fill="#fff" d="M26.182 9.686c-0.766 0.334-1.576 0.556-2.406 0.659 0.874-0.518 1.528-1.339 1.837-2.307-0.818 0.485-1.714 0.827-2.647 1.010-0.572-0.611-1.315-1.036-2.132-1.22s-1.67-0.117-2.449 0.191c-0.779 0.308-1.447 0.843-1.917 1.535s-0.722 1.511-0.722 2.348c0 0.331 0.027 0.65 0.097 0.952-3.471-0.169-6.542-1.833-8.605-4.366-0.374 0.64-0.572 1.367-0.574 2.109 0 1.446 0.745 2.728 1.854 3.469-0.66-0.018-1.307-0.194-1.885-0.513v0.046c0.001 0.964 0.334 1.899 0.943 2.646s1.457 1.262 2.402 1.457c-0.357 0.094-0.725 0.14-1.095 0.136-0.267 0-0.537-0.015-0.79-0.071 0.541 1.654 2.075 2.869 3.901 2.908-1.478 1.156-3.3 1.784-5.176 1.782-0.334 0.002-0.667-0.018-0.999-0.059 1.909 1.23 4.133 1.881 6.404 1.873 7.682 0 11.882-6.364 11.882-11.88 0-0.183-0.006-0.362-0.015-0.54 0.823-0.588 1.532-1.322 2.092-2.165v-0.001z"></path>
</svg>
