<svg width="22" height="22" viewBox="0 0 22 22" fill="none" xmlns="http://www.w3.org/2000/svg">
<circle cx="11" cy="11" r="11" fill="#D9D9D9"/>
<path d="M17.9643 8.116C17.9321 7.3719 17.8117 6.8609 17.6394 6.4178C17.4636 5.94957 17.1871 5.52565 16.8294 5.176C16.4796 4.82047 16.0568 4.54509 15.5901 4.3689C15.1441 4.1967 14.6358 4.077 13.8916 4.0441C13.1424 4.0084 12.9044 4 11.0028 4C9.10192 4 8.86387 4.0084 8.11682 4.0413C7.37327 4.0735 6.86147 4.1939 6.41898 4.3661C5.95041 4.54181 5.52616 4.8183 5.17624 5.176C4.82092 5.52582 4.54574 5.94854 4.36967 6.415C4.19674 6.8609 4.07702 7.3691 4.04411 8.1132C4.0084 8.8622 4 9.1002 4 11.0014C4 12.9019 4.0084 13.1399 4.04131 13.8868C4.07421 14.6309 4.19464 15.1419 4.36687 15.585C4.54356 16.0526 4.81971 16.4763 5.17624 16.8268C5.52631 17.1824 5.95059 17.4582 6.41548 17.6332C6.86147 17.8061 7.37047 17.9265 8.11402 17.9587C8.86107 17.9916 9.09912 18 11 18C12.9016 18 13.1396 17.9916 13.886 17.9587C14.6302 17.9265 15.1413 17.8061 15.5845 17.6339C16.05 17.454 16.4728 17.1788 16.8257 16.8259C17.1786 16.4731 17.4539 16.0504 17.6338 15.585C17.8061 15.1391 17.9265 14.6302 17.9594 13.8868C17.9923 13.1399 18 12.9019 18 11.0014C18 9.1009 17.9972 8.8629 17.965 8.116H17.9643ZM16.704 13.8322C16.6732 14.5161 16.5584 14.885 16.4632 15.1314C16.3463 15.4333 16.1676 15.7075 15.9385 15.9363C15.7094 16.1651 15.435 16.3435 15.1329 16.46C14.8879 16.5559 14.5154 16.6707 13.8342 16.7008C13.0955 16.7337 12.8743 16.7421 11.0056 16.7421C9.13763 16.7421 8.91288 16.7337 8.17704 16.7008C7.493 16.6707 7.12402 16.5559 6.87758 16.46C6.57383 16.3485 6.29911 16.17 6.07381 15.9378C5.84192 15.7121 5.66325 15.4376 5.55081 15.1342C5.45559 14.8878 5.34077 14.5161 5.31066 13.835C5.27776 13.0965 5.26935 12.8746 5.26935 11.007C5.26935 9.1387 5.27776 8.914 5.31066 8.179C5.34077 7.4951 5.45559 7.1262 5.55081 6.8798C5.66225 6.57519 5.84186 6.30009 6.07592 6.0755C6.30204 5.84364 6.57713 5.66522 6.88108 5.5533C7.12613 5.4574 7.4986 5.3433 8.17984 5.3125C8.91848 5.2803 9.14043 5.2719 11.0084 5.2719C12.8792 5.2719 13.1011 5.2803 13.837 5.3125C14.521 5.3426 14.89 5.4574 15.1364 5.5533C15.4396 5.6653 15.7161 5.8431 15.9402 6.0755C16.1726 6.303 16.3505 6.576 16.4632 6.8805C16.5584 7.1255 16.6732 7.4979 16.7033 8.179C16.7362 8.9175 16.7446 9.1387 16.7446 11.007C16.7446 12.8746 16.7362 13.093 16.7033 13.8322H16.704Z" fill="white"/>
<path d="M11.0027 7.40483C10.0489 7.4052 9.13415 7.78427 8.45972 8.4587C7.78528 9.13313 7.40631 10.0477 7.40613 11.0014C7.42471 11.943 7.81188 12.8398 8.48448 13.4991C9.15709 14.1584 10.0615 14.5278 11.0034 14.5278C11.9454 14.5278 12.8498 14.1584 13.5224 13.4991C14.195 12.8398 14.5822 11.943 14.6008 11.0014C14.6006 10.0476 14.2215 9.13291 13.5469 8.45845C12.8723 7.784 11.9575 7.40501 11.0034 7.40483H11.0027ZM11.0027 13.3338C10.6963 13.3338 10.3929 13.2734 10.1098 13.1561C9.82665 13.0388 9.56943 12.8669 9.35277 12.6502C9.13611 12.4336 8.96426 12.1763 8.84703 11.8932C8.7298 11.6102 8.66948 11.3068 8.66953 11.0004C8.66958 10.694 8.72998 10.3906 8.8473 10.1076C8.96461 9.82452 9.13654 9.56735 9.35326 9.35073C9.56999 9.13411 9.82726 8.9623 10.1104 8.84509C10.3935 8.72789 10.697 8.66758 11.0034 8.66763C11.6224 8.66763 12.2161 8.91347 12.6538 9.35108C13.0915 9.78869 13.3374 10.3822 13.3374 11.0011C13.3374 11.6199 13.0915 12.2135 12.6538 12.6511C12.2161 13.0887 11.6224 13.3345 11.0034 13.3345L11.0027 13.3338ZM15.5824 7.26273C15.5824 7.48551 15.4938 7.69917 15.3363 7.8567C15.1787 8.01423 14.965 8.10273 14.7422 8.10273C14.5194 8.10273 14.3057 8.01423 14.1481 7.8567C13.9905 7.69917 13.902 7.48551 13.902 7.26273C13.902 7.03995 13.9905 6.82629 14.1481 6.66876C14.3057 6.51123 14.5194 6.42273 14.7422 6.42273C14.965 6.42273 15.1787 6.51123 15.3363 6.66876C15.4938 6.82629 15.5824 7.03995 15.5824 7.26273Z" fill="white"/>
</svg>
