<svg width="22" height="22" viewBox="0 0 22 22" fill="none" xmlns="http://www.w3.org/2000/svg">
<circle cx="11" cy="11" r="11" fill="#D9D9D9"/>
<g clip-path="url(#clip0_25_140)">
<path d="M18 6.65924C17.4732 6.88884 16.9162 7.04137 16.3459 7.11214C16.9468 6.75579 17.3961 6.19141 17.6087 5.52594C17.0461 5.85951 16.4305 6.09436 15.7887 6.22034C15.3952 5.80015 14.8845 5.50803 14.3228 5.38194C13.7611 5.25584 13.1745 5.30161 12.6392 5.5133C12.1039 5.72498 11.6446 6.09278 11.3211 6.56892C10.9975 7.04505 10.8247 7.60749 10.825 8.18314C10.825 8.41064 10.8439 8.62974 10.8915 8.83764C8.5052 8.72144 6.394 7.57764 4.9758 5.83604C4.71867 6.27601 4.58247 6.77615 4.581 7.28574C4.581 8.27974 5.0934 9.16104 5.8557 9.67064C5.40178 9.6585 4.95741 9.53751 4.56 9.31784V9.34934C4.56059 10.0122 4.78958 10.6547 5.20842 11.1685C5.62725 11.6823 6.21034 12.0361 6.8595 12.1703C6.61394 12.2348 6.36088 12.2664 6.107 12.2641C5.9236 12.2641 5.7381 12.2536 5.5638 12.2151C5.9355 13.3519 6.9904 14.1877 8.2455 14.2143C7.22962 15.0092 5.97659 15.4405 4.6867 15.4393C4.45717 15.4405 4.2278 15.4269 4 15.3987C5.31241 16.2444 6.84172 16.6918 8.403 16.6867C13.6845 16.6867 16.572 12.3117 16.572 8.51914C16.572 8.39314 16.5678 8.26994 16.5615 8.14814C17.1274 7.74359 17.6149 7.23928 18 6.65994V6.65924Z" fill="white"/>
</g>
<defs>
<clipPath id="clip0_25_140">
<rect width="14" height="14" fill="white" transform="translate(4 4)"/>
</clipPath>
</defs>
</svg>
