<svg aria-hidden="true" style="position:absolute;width:0;height:0;overflow:hidden" xmlns="http://www.w3.org/2000/svg"><defs>
<symbol id="icon-facebook-1" viewBox="0 0 32 32"><path fill="#d9d9d9" style="fill:var(--color1, #d9d9d9)" d="M32 16c0 8.837-7.163 16-16 16S0 24.837 0 16 7.163 0 16 0s16 7.163 16 16z"/><path fill="#fff" style="fill:var(--color2, #fff)" d="M19.391 9.199h1.86V5.961a24.022 24.022 0 0 0-2.708-.143c-2.681 0-4.518 1.686-4.518 4.785v2.851h-2.957v3.62h2.957v9.108h3.627v-9.107h2.838l.45-3.62h-3.289v-2.496c0-1.046.282-1.761 1.74-1.761z"/></symbol>
<symbol id="icon-instagram" viewBox="0 0 32 32"><path fill="#d9d9d9" style="fill:var(--color1, #d9d9d9)" d="M32 16c0 8.837-7.163 16-16 16S0 24.837 0 16 7.163 0 16 0s16 7.163 16 16z"/><path fill="#fff" style="fill:var(--color2, #fff)" d="M26.13 11.805c-.047-1.082-.222-1.826-.473-2.47a4.97 4.97 0 0 0-1.178-1.806 5.012 5.012 0 0 0-1.803-1.174c-.649-.25-1.388-.425-2.471-.472-1.09-.052-1.436-.064-4.202-.064-2.765 0-3.111.012-4.198.06-1.082.047-1.826.222-2.47.472a4.977 4.977 0 0 0-1.808 1.178 5.014 5.014 0 0 0-1.173 1.802c-.252.649-.426 1.388-.474 2.47-.052 1.089-.064 1.436-.064 4.201 0 2.764.012 3.111.06 4.197.048 1.082.223 1.826.474 2.47.257.68.659 1.296 1.177 1.806a5.014 5.014 0 0 0 1.803 1.173c.649.252 1.389.427 2.471.473 1.087.048 1.433.06 4.198.06 2.766 0 3.112-.012 4.198-.06 1.082-.047 1.826-.222 2.471-.472a5.213 5.213 0 0 0 2.98-2.98c.251-.649.426-1.389.474-2.47.048-1.086.059-1.433.059-4.197s-.004-3.111-.051-4.197h-.001zm-1.833 8.315c-.045.995-.212 1.531-.35 1.89a3.385 3.385 0 0 1-1.935 1.933c-.356.14-.898.306-1.889.35-1.074.048-1.396.06-4.114.06-2.717 0-3.044-.012-4.114-.06-.995-.044-1.532-.211-1.89-.35a3.13 3.13 0 0 1-1.169-.76 3.177 3.177 0 0 1-.761-1.169c-.138-.358-.306-.899-.349-1.89-.048-1.074-.06-1.397-.06-4.113 0-2.718.012-3.044.06-4.113.044-.995.211-1.531.349-1.89.162-.443.423-.843.764-1.17a3.17 3.17 0 0 1 1.171-.76c.356-.139.898-.305 1.889-.35 1.074-.047 1.397-.059 4.114-.059 2.721 0 3.044.012 4.114.059.995.044 1.532.211 1.89.35.441.163.843.422 1.169.76.338.331.597.728.761 1.171.138.356.305.898.349 1.889.048 1.074.06 1.396.06 4.113 0 2.716-.012 3.034-.06 4.109h.001z"/><path fill="#fff" style="fill:var(--color2, #fff)" d="M16.004 10.771a5.237 5.237 0 0 0-5.232 5.231 5.235 5.235 0 0 0 10.466 0 5.233 5.233 0 0 0-5.233-5.232h-.001zm0 8.624a3.405 3.405 0 0 1-2.4-.994 3.4 3.4 0 0 1-.994-2.4 3.387 3.387 0 0 1 .995-2.4 3.381 3.381 0 0 1 2.4-.993 3.391 3.391 0 0 1 2.401 5.794c-.636.636-1.5.994-2.401.994l-.001-.001zm6.661-8.831a1.222 1.222 0 1 1-2.445 0 1.222 1.222 0 0 1 2.445 0z"/></symbol>
<symbol id="icon-twitter" viewBox="0 0 32 32"><path fill="#d9d9d9" style="fill:var(--color1, #d9d9d9)" d="M32 16c0 8.837-7.163 16-16 16S0 24.837 0 16 7.163 0 16 0s16 7.163 16 16z"/><path fill="#fff" style="fill:var(--color2, #fff)" d="M26.182 9.686a8.699 8.699 0 0 1-2.406.659 4.149 4.149 0 0 0 1.837-2.307 8.34 8.34 0 0 1-2.647 1.01 4.178 4.178 0 0 0-4.581-1.029 4.171 4.171 0 0 0-2.639 3.883c0 .331.027.65.097.952-3.471-.169-6.542-1.833-8.605-4.366a4.2 4.2 0 0 0-.574 2.109 4.18 4.18 0 0 0 1.854 3.469 4.136 4.136 0 0 1-1.885-.513v.046a4.195 4.195 0 0 0 3.345 4.103c-.357.094-.725.14-1.095.136-.267 0-.537-.015-.79-.071.541 1.654 2.075 2.869 3.901 2.908a8.387 8.387 0 0 1-6.175 1.723 11.747 11.747 0 0 0 6.404 1.873c7.682 0 11.882-6.364 11.882-11.88 0-.183-.006-.362-.015-.54a8.316 8.316 0 0 0 2.092-2.165v-.001z"/></symbol></defs></svg>