<?xml version="1.0" standalone="no"?>
<!DOCTYPE svg PUBLIC "-//W3C//DTD SVG 20010904//EN"
 "http://www.w3.org/TR/2001/REC-SVG-20010904/DTD/svg10.dtd">
<svg version="1.0" xmlns="http://www.w3.org/2000/svg"
 width="700.000000pt" height="700.000000pt" viewBox="0 0 700.000000 700.000000"
 preserveAspectRatio="xMidYMid meet">
<metadata>
Created by potrace 1.14, written by Peter Selinger 2001-2017
</metadata>
<g transform="translate(0.000000,700.000000) scale(0.100000,-0.100000)"
fill="#000000" stroke="none">
<path d="M2776 5143 c-150 -34 -273 -177 -312 -363 -16 -79 -17 -198 -2 -265
6 -22 12 -50 14 -63 18 -95 98 -229 188 -313 128 -122 306 -158 448 -92 273
128 345 563 143 867 -120 181 -304 269 -479 229z"/>
<path d="M4013 5145 c-193 -44 -357 -228 -414 -465 -17 -73 -17 -252 0 -315
42 -152 145 -282 257 -325 93 -36 211 -33 304 9 200 90 341 337 342 596 0 106
-1 111 -26 194 -65 218 -265 351 -463 306z"/>
<path d="M4997 4319 c-90 -10 -197 -68 -282 -153 -238 -239 -246 -622 -16
-768 149 -94 351 -55 507 99 125 124 187 263 187 423 1 112 -5 145 -39 211
-69 138 -198 206 -357 188z"/>
<path d="M1884 4194 c-108 -22 -181 -77 -232 -173 -101 -188 -42 -463 137
-640 303 -301 709 -134 678 279 -11 142 -75 277 -183 386 -120 121 -267 176
-400 148z"/>
<path d="M3347 3629 c-175 -31 -296 -77 -437 -167 -90 -58 -239 -201 -259
-249 -7 -18 -29 -37 -59 -53 -313 -162 -474 -404 -426 -638 40 -197 194 -360
459 -487 169 -81 318 -127 520 -161 20 -3 68 -9 185 -23 66 -8 438 -6 475 2
11 3 47 8 80 11 217 25 509 115 665 207 211 124 345 276 379 433 17 76 16 185
-2 202 -4 4 -7 17 -7 30 0 26 -56 129 -101 186 -54 68 -193 176 -286 223 -44
22 -69 43 -94 80 -127 185 -373 339 -629 394 -143 31 -323 35 -463 10z"/>
</g>
</svg>
