<?xml version="1.0" standalone="no"?>
<!DOCTYPE svg PUBLIC "-//W3C//DTD SVG 20010904//EN"
 "http://www.w3.org/TR/2001/REC-SVG-20010904/DTD/svg10.dtd">
<svg version="1.0" xmlns="http://www.w3.org/2000/svg"
 width="700.000000pt" height="700.000000pt" viewBox="0 0 700.000000 700.000000"
 preserveAspectRatio="xMidYMid meet">
<metadata>
Created by potrace 1.14, written by Peter Selinger 2001-2017
</metadata>
<g transform="translate(0.000000,700.000000) scale(0.100000,-0.100000)"
fill="#000000" stroke="none">
<path d="M2778 5095 c-61 -16 -106 -45 -156 -99 -36 -39 -110 -166 -97 -166 2
0 1 -10 -4 -23 -21 -54 -28 -168 -17 -252 28 -198 146 -379 298 -454 332 -164
627 215 488 629 -89 265 -305 418 -512 365z"/>
<path d="M4048 5105 c-2 -2 -19 -7 -37 -10 -58 -10 -132 -55 -196 -118 -110
-109 -174 -260 -181 -427 -2 -52 1 -120 8 -150 53 -250 253 -390 459 -321 201
67 347 294 354 551 7 260 -139 461 -343 475 -33 2 -62 2 -64 0z"/>
<path d="M4975 4266 c-217 -52 -395 -291 -396 -532 0 -143 61 -253 173 -310
250 -127 598 173 598 515 0 224 -173 374 -375 327z"/>
<path d="M1887 4148 c-174 -37 -270 -225 -226 -440 20 -97 85 -216 158 -289
256 -256 597 -151 602 186 2 154 -55 289 -171 406 -111 112 -244 162 -363 137z"/>
<path d="M3420 3593 c-316 -45 -568 -182 -717 -390 -33 -47 -59 -71 -96 -90
-60 -30 -131 -75 -135 -85 -2 -5 -8 -8 -14 -8 -19 0 -141 -125 -180 -185 -216
-331 55 -693 647 -864 115 -33 207 -50 385 -71 80 -9 471 -6 530 5 19 3 78 13
130 21 386 62 721 241 857 455 90 143 86 316 -11 462 -65 98 -203 212 -336
277 -29 14 -54 36 -70 63 -36 58 -165 186 -234 231 -117 77 -247 131 -391 161
-73 16 -302 27 -365 18z"/>
</g>
</svg>
